<svg width="683" height="899" viewBox="0 0 683 899" fill="none" xmlns="http://www.w3.org/2000/svg">
<circle cx="280.5" cy="487.5" r="280.5" fill="#D9D9D9"/>
<mask id="path-2-outside-1_160_65" maskUnits="userSpaceOnUse" x="167" y="329" width="487" height="316" fill="black">
<rect fill="white" x="167" y="329" width="487" height="316"/>
<path d="M526.344 339.818C548.915 339.818 569.017 344.579 586.65 354.101C604.283 363.27 618.214 377.201 628.441 395.892C638.668 414.583 643.782 437.33 643.782 464.133V635H596.172V471.01C596.172 442.091 588.942 420.05 574.483 404.885C560.376 389.368 541.156 381.609 516.822 381.609C491.783 381.609 471.857 389.72 457.045 405.943C442.233 421.813 434.827 444.913 434.827 475.242V635H387.217V471.01C387.217 442.091 379.987 420.05 365.528 404.885C351.421 389.368 332.201 381.609 307.867 381.609C282.828 381.609 262.902 389.72 248.09 405.943C233.278 421.813 225.872 444.913 225.872 475.242V635H177.733V345.108H225.872V386.899C235.394 371.734 248.09 360.096 263.96 351.985C280.183 343.874 297.992 339.818 317.389 339.818C341.723 339.818 363.236 345.284 381.927 356.217C400.618 367.15 414.549 383.196 423.718 404.356C431.829 383.901 445.231 368.031 463.922 356.746C482.613 345.461 503.421 339.818 526.344 339.818Z"/>
</mask>
<path d="M586.65 354.101L581.899 362.9L581.967 362.937L582.036 362.973L586.65 354.101ZM628.441 395.892L619.668 400.692V400.692L628.441 395.892ZM643.782 635V645H653.782V635H643.782ZM596.172 635H586.172V645H596.172V635ZM574.483 404.885L567.084 411.612L567.164 411.7L567.246 411.786L574.483 404.885ZM457.045 405.943L464.356 412.766L464.393 412.726L464.43 412.686L457.045 405.943ZM434.827 635V645H444.827V635H434.827ZM387.217 635H377.217V645H387.217V635ZM365.528 404.885L358.129 411.612L358.209 411.7L358.291 411.786L365.528 404.885ZM248.09 405.943L255.401 412.766L255.438 412.726L255.475 412.686L248.09 405.943ZM225.872 635V645H235.872V635H225.872ZM177.733 635H167.733V645H177.733V635ZM177.733 345.108V335.108H167.733V345.108H177.733ZM225.872 345.108H235.872V335.108H225.872V345.108ZM225.872 386.899H215.872V421.63L234.341 392.217L225.872 386.899ZM263.96 351.985L259.488 343.041L259.448 343.061L259.409 343.081L263.96 351.985ZM381.927 356.217L376.878 364.849H376.878L381.927 356.217ZM423.718 404.356L414.542 408.332L424.127 430.451L433.014 408.042L423.718 404.356ZM463.922 356.746L469.091 365.307V365.307L463.922 356.746ZM526.344 339.818V349.818C547.468 349.818 565.901 354.261 581.899 362.9L586.65 354.101L591.401 345.302C572.132 334.897 550.361 329.818 526.344 329.818V339.818ZM586.65 354.101L582.036 362.973C597.782 371.161 610.321 383.609 619.668 400.692L628.441 395.892L637.214 391.092C626.106 370.792 610.785 355.38 591.264 345.229L586.65 354.101ZM628.441 395.892L619.668 400.692C628.909 417.579 633.782 438.583 633.782 464.133H643.782H653.782C653.782 436.077 648.428 411.587 637.214 391.092L628.441 395.892ZM643.782 464.133H633.782V635H643.782H653.782V464.133H643.782ZM643.782 635V625H596.172V635V645H643.782V635ZM596.172 635H606.172V471.01H596.172H586.172V635H596.172ZM596.172 471.01H606.172C606.172 440.511 598.535 415.619 581.72 397.984L574.483 404.885L567.246 411.786C579.35 424.48 586.172 443.672 586.172 471.01H596.172ZM574.483 404.885L581.882 398.158C565.571 380.215 543.477 371.609 516.822 371.609V381.609V391.609C538.835 391.609 555.182 398.52 567.084 411.612L574.483 404.885ZM516.822 381.609V371.609C489.406 371.609 466.641 380.603 449.66 399.2L457.045 405.943L464.43 412.686C477.073 398.838 494.159 391.609 516.822 391.609V381.609ZM457.045 405.943L449.734 399.12C432.61 417.468 424.827 443.391 424.827 475.242H434.827H444.827C444.827 446.434 451.856 426.158 464.356 412.766L457.045 405.943ZM434.827 475.242H424.827V635H434.827H444.827V475.242H434.827ZM434.827 635V625H387.217V635V645H434.827V635ZM387.217 635H397.217V471.01H387.217H377.217V635H387.217ZM387.217 471.01H397.217C397.217 440.511 389.58 415.619 372.765 397.984L365.528 404.885L358.291 411.786C370.395 424.48 377.217 443.672 377.217 471.01H387.217ZM365.528 404.885L372.927 398.158C356.616 380.215 334.522 371.609 307.867 371.609V381.609V391.609C329.88 391.609 346.227 398.52 358.129 411.612L365.528 404.885ZM307.867 381.609V371.609C280.451 371.609 257.686 380.603 240.705 399.2L248.09 405.943L255.475 412.686C268.118 398.838 285.204 391.609 307.867 391.609V381.609ZM248.09 405.943L240.779 399.12C223.655 417.468 215.872 443.391 215.872 475.242H225.872H235.872C235.872 446.434 242.901 426.158 255.401 412.766L248.09 405.943ZM225.872 475.242H215.872V635H225.872H235.872V475.242H225.872ZM225.872 635V625H177.733V635V645H225.872V635ZM177.733 635H187.733V345.108H177.733H167.733V635H177.733ZM177.733 345.108V355.108H225.872V345.108V335.108H177.733V345.108ZM225.872 345.108H215.872V386.899H225.872H235.872V345.108H225.872ZM225.872 386.899L234.341 392.217C242.909 378.571 254.254 368.176 268.511 360.889L263.96 351.985L259.409 343.081C241.926 352.017 227.879 364.897 217.403 381.581L225.872 386.899ZM263.96 351.985L268.432 360.929C283.171 353.56 299.434 349.818 317.389 349.818V339.818V329.818C296.55 329.818 277.195 334.187 259.488 343.041L263.96 351.985ZM317.389 339.818V349.818C340.173 349.818 359.901 354.919 376.878 364.849L381.927 356.217L386.976 347.585C366.57 335.65 343.273 329.818 317.389 329.818V339.818ZM381.927 356.217L376.878 364.849C393.611 374.636 406.16 388.989 414.542 408.332L423.718 404.356L432.894 400.38C422.937 377.403 407.626 359.663 386.976 347.585L381.927 356.217ZM423.718 404.356L433.014 408.042C440.326 389.603 452.287 375.452 469.091 365.307L463.922 356.746L458.753 348.185C438.175 360.61 423.333 378.2 414.422 400.67L423.718 404.356ZM463.922 356.746L469.091 365.307C486.143 355.011 505.148 349.818 526.344 349.818V339.818V329.818C501.694 329.818 479.084 335.91 458.753 348.185L463.922 356.746Z" fill="#363636" mask="url(#path-2-outside-1_160_65)"/>
<path d="M576 351C589.667 355.667 618.7 369.6 625.5 388C634 411 646.5 438 648.5 454.5C650.1 467.7 649.167 575 648.5 627H598.5V454.5C591.667 432.333 575.5 388 565.5 388C555.5 388 568.333 363.333 576 351Z" fill="#363636"/>
<path d="M520.824 339.625C521.43 341.61 522.639 343.596 523.792 345.164C524.688 346.383 526.213 348.356 527.171 350.14C528.219 352.091 528.791 354.332 529.299 355.829C529.756 357.176 530.679 359.443 531.829 361.905C532.536 363.42 533.111 365.351 534.361 367.239C535.345 368.724 536.288 370.189 536.895 372.284C537.707 375.093 539.125 376.373 539.632 377.798C540.138 379.573 541.082 381.706 541.524 383.165C541.625 383.558 541.759 383.98 541.896 384.414" stroke="#363636" stroke-width="2" stroke-linecap="round"/>
<path d="M520.268 340.125C520.512 340.421 520.732 340.934 520.873 341.322C520.997 341.663 521.489 341.99 521.711 342.32C521.87 342.555 522.489 343.236 522.885 343.679C523.128 343.95 523.423 344.206 523.571 344.49C523.726 344.788 523.828 345.043 524.023 345.525C524.147 345.834 524.304 346.112 524.494 346.447C524.729 346.861 524.855 347.104 525.056 347.348C525.364 347.721 525.405 348.094 525.607 348.494C525.756 348.79 525.846 349.112 525.926 349.479C526.01 349.869 526.09 350.181 526.189 350.439C526.293 350.712 526.372 350.992 526.415 351.244C526.457 351.489 526.641 351.777 526.703 352.093C526.763 352.402 526.934 352.807 527.112 353.162C527.448 353.708 527.888 354.327 528.127 354.598C528.182 354.65 528.243 354.688 528.378 354.843" stroke="#363636" stroke-width="2" stroke-linecap="round"/>
<path d="M525.333 349.474C525.077 349.307 524.784 348.922 524.612 348.619C524.45 348.334 524.428 347.994 524.093 347.23C523.887 346.76 523.426 346.206 523.066 345.71C522.273 344.621 522.141 344.338 521.793 343.919C521.445 343.501 521.187 343.037 520.753 342.356C520.538 341.955 520.162 341.303 519.412 340.186C518.989 339.591 518.481 338.941 517.957 338.271" stroke="#363636" stroke-width="2" stroke-linecap="round"/>
<path d="M535.736 342.029C536.69 341.625 540.345 341.822 546.363 345.211C552.748 348.807 562.806 351.258 567.177 352.872C578.769 357.154 583.033 358.556 588.285 361.089C590.357 362.089 593.5 363.607 595.313 364.183C597.126 364.758 597.507 364.357 597.513 363.698C597.54 360.582 594.253 358.982 584.015 352.301C579.747 349.515 576.806 349.339 574.441 348.373C571.911 347.339 569.195 347.002 564.43 345.687C558.38 344.017 552.829 342.139 548.616 340.966C544.266 339.756 538.177 339.593 534.397 339.291C531.676 339.074 529.381 338.681 528.656 338.982C526.554 339.857 530.719 342.734 530.917 342.942C533.437 345.577 526.585 339.497 526.434 339.49C520.824 339.251 533.226 346.488 533.566 347.098C534.56 348.879 529.669 344.269 527.789 342.085C526.38 340.449 532.532 346.07 534.814 349.219C537.391 352.776 537.566 354.706 537.425 355.065C536.358 357.777 534.204 350.059 532.753 347.919C532.125 346.994 530.826 346.296 530.197 345.734C528.313 344.049 533.602 350.74 535.729 354.593C537.85 358.434 538.523 360.886 539.3 362.971C540.053 364.992 541.321 368.283 542.046 371.187C542.656 373.635 542.866 376.713 543.828 379.101C544.064 379.688 544.405 380.165 544.075 379.47C541.656 374.367 541.235 372.27 540.125 370.191C538.74 367.596 537.674 365.373 536.511 363.191C535.009 360.372 534.007 357.668 532.227 353.866C530.795 350.807 528.897 348.832 528.605 347.819C528.454 347.298 529.647 346.807 530.423 346.599C533.235 345.845 536.014 348.311 538.139 350.642C539.232 351.842 539.87 354.191 544.322 359.03C547.737 362.742 553.831 368.691 557.213 372.147C561.228 376.249 564.143 380.245 567.71 384.662C568.769 385.974 568.796 384.962 568.556 384.044C568.07 382.182 566.779 379.985 564.334 374.893C562.54 371.159 560.076 364.88 557.986 360.317C554.602 352.929 551.937 348.037 549.919 343.433C548.852 340.998 547.33 338.528 551.173 342.357C555.016 346.186 564.175 356.431 568.083 360.905C571.991 365.379 570.369 363.772 569.247 362.492C567.425 360.414 566.581 358.473 566.623 358.208C567.141 354.95 570.424 364.338 572.202 366.312C576.892 371.514 549.418 348.922 552.286 352.043C559.18 359.545 564.358 364.649 564.171 364.906C559.632 371.153 549.054 353.409 548.741 354.989C548.047 358.498 554.727 366.615 556.419 370.206C558.11 373.798 556.774 372.392 555.132 370.01C551.321 364.484 549.137 359.693 548.7 358.219C548.487 357.499 550.19 359.879 551.578 363.502C554.921 372.228 556.554 379.854 555.934 382.288C555.431 384.262 547.834 381.007 540.65 377.862C542.265 378.839 548.924 384.015 551.762 386.298C552.98 387.073 553.743 387.073 554.818 387.379" stroke="#363636" stroke-width="8" stroke-linecap="round"/>
<path d="M553.374 377.031C552.61 374.217 551.548 367.244 550.25 357.468C549.684 353.208 549.048 350.405 549.087 350.262C550.627 344.638 551.055 359.554 551.398 366.151C551.646 370.924 551.159 374.99 551.013 381.215C550.978 382.704 550.87 383.507 550.583 383.719C547.953 385.665 547.4 375.319 547.254 369.291C547.186 366.481 547.302 362.653 546.822 359.488C546.151 355.059 544.995 349.553 543.98 347.762C543.813 347.467 543.167 348.408 542.922 349.07C542.676 350.435 542.771 351.762 543.106 353.479C543.346 354.593 543.727 356.2 544.12 357.856" stroke="#363636" stroke-width="8" stroke-linecap="round"/>
<path d="M545.278 387.073C545.183 387.374 545.087 387.675 545.038 386.927C544.988 386.178 544.988 384.371 544.988 382.509" stroke="#363636" stroke-width="8" stroke-linecap="round"/>
<path d="M556.842 390.725C559.897 392.735 567.481 397.687 577.018 403.822C582.705 407.481 584.978 407.767 585.8 407.621C587.442 407.328 581.076 400.408 572.665 391.906C568.442 387.637 563.968 383.805 564.14 385.002C564.312 386.198 569.179 392.626 570.636 395.133C573.676 400.367 558.791 383.556 555.897 378.887C555.024 377.478 555.675 377.833 556.59 378.643C560.706 382.284 569.867 390.756 574.579 395.237C575.696 396.299 569.779 393.075 567.553 391.293C567.426 391.118 569.334 392.424 570.651 393.248C571.968 394.071 572.636 394.372 573.324 394.682" stroke="#363636" stroke-width="8" stroke-linecap="round"/>
<path d="M577.25 404.887C581.165 406.947 595.018 417.876 608.18 431.812C618.304 442.532 617.809 453.299 617.27 455.482C615.783 461.496 606.478 441.877 603.973 435.21C601.452 428.497 598.198 423.272 590.593 412.629C587.865 408.81 583.44 404.972 583.054 407.751C581.276 420.546 590.544 436.273 591.854 446.928C593.477 460.132 594.259 466.597 596.753 475.658C599.182 484.478 599.494 490.929 599.385 504.446C599.32 512.568 597.53 519.393 596.985 526.843C596.826 529.03 596.874 531.307 597.306 530.432C602.079 520.781 598.631 510.76 596.774 494.509C593.441 465.342 595.346 441.649 596.108 440.228C601.452 430.254 597.09 462.251 597.634 470.569C599.758 503.049 598.616 513.611 597.752 522.137C596.409 535.398 598.186 542.792 597.097 554.372C596.179 564.129 595.566 571.49 594.917 583.826C593.781 605.411 595.122 621.534 596.753 624.742C597.474 626.158 598.17 627.042 599.583 627.51C606.52 629.809 612.981 626.148 624.185 624.771C633.337 623.646 640.035 625.218 642.212 626.818C644.178 628.262 643.971 631.18 643.54 633.357C643.321 634.461 642.245 635.305 640.505 635.091C630.432 633.855 622.859 627.538 616.526 626.144C614.609 625.722 611.972 626.367 610.314 626.939C607.725 627.831 606.911 631.628 605.496 635.774C605.238 636.529 603.443 635.112 602.129 634.417C600.814 633.721 599.52 633.266 601.767 633.032C617.503 631.392 624.103 631.42 629.995 630.277C631.725 629.941 633.901 630.043 635.445 630.497C636.988 630.952 637.851 631.861 633.979 632.33C621.471 632.798 610.415 632.571 606.065 632.228C603.874 632.111 601.717 632.111 601.453 630.043" stroke="#363636" stroke-width="8" stroke-linecap="round"/>
<path d="M623.04 392.497C625.867 397.066 630.211 405.758 634.257 411.985C637.864 418.185 638.741 422.55 638.632 425.066C638.524 426.446 638.308 428.037 638.085 432.43" stroke="#363636" stroke-width="8" stroke-linecap="round"/>
<circle cx="462" cy="601" r="52" fill="#FF7E21"/>
<path d="M374.2 544.071C375.934 548.823 378.369 555.762 381.487 566.276C383.456 572.917 390.448 583.988 394.763 592.418C404.841 613.888 407.972 620.866 408.856 624.806C409.028 625.821 409.373 626.728 409.728 627.663" stroke="#D9D9D9" stroke-width="8" stroke-linecap="round"/>
<path d="M414.766 630.437C414.879 631.821 415.337 633.143 416.28 635.161C417.482 637.736 418.829 639.172 419.147 640.35C419.974 641.406 422.255 642.61 424.778 644.326C425.636 644.899 426.883 645.615 428.169 646.353" stroke="#D9D9D9" stroke-width="8" stroke-linecap="round"/>
<path d="M415.969 633.692C416.423 635.306 418.138 639.527 419.714 640.894C420.201 641.106 420.824 641.285 421.316 641.437C421.807 641.589 422.148 641.708 422.67 641.831" stroke="#D9D9D9" stroke-width="8" stroke-linecap="round"/>
<path d="M415.625 631.884C417.218 633.141 420.199 635.913 421.434 637.125C422.548 638.219 423.979 639.835 425.271 641.073C426.448 642.794 427.247 643.756 428.643 644.957C429.586 645.68 431.003 646.635 432.464 647.619" stroke="#D9D9D9" stroke-width="8" stroke-linecap="round"/>
<path d="M203.14 310.685C211.333 323.979 219.526 337.274 244.569 366.399C269.612 395.525 311.257 440.079 334.417 464.11C357.577 488.14 360.992 490.297 364.509 492.519" stroke="#D9D9D9" stroke-width="8" stroke-linecap="round"/>
<path d="M220.37 339.104C220.259 339.104 220.396 339.104 220.913 339.148C221.681 339.28 222.751 339.37 223.761 339.4C224.16 339.429 224.326 339.487 224.919 339.548" stroke="#363636" stroke-width="8" stroke-linecap="round"/>
<path d="M214.557 339.902C215.426 339.577 217.433 339.517 218.767 339.4C219.806 339.309 221.988 339.221 224.812 339.267C226.097 339.287 227.22 339.134 227.474 338.972C227.841 338.738 224.41 338.601 220.718 338.675C218.438 338.867 217.199 338.897 216.459 338.853C215.941 338.838 215.135 338.838 214.304 338.838" stroke="#363636" stroke-width="8" stroke-linecap="round"/>
<path d="M214.389 341.587C215.34 341.646 216.683 341.765 219.035 341.691C222.929 341.568 225.676 341.617 226.165 341.528C226.96 341.498 227.781 341.44 228.508 341.351C228.903 341.321 229.348 341.321 229.806 341.321" stroke="#363636" stroke-width="8" stroke-linecap="round"/>
</svg>
